<svg width="32" height="32" viewBox="0 0 32 32" fill="none" xmlns="http://www.w3.org/2000/svg">
<path d="M14.6667 4H17.3333C18.0697 4 18.6667 4.59696 18.6667 5.33333V6.09172C18.6667 6.66212 19.0495 7.15767 19.5763 7.37637C20.1033 7.59517 20.7169 7.51179 21.1204 7.10831L21.6568 6.57188C22.1775 6.05117 23.0217 6.05117 23.5424 6.57188L25.428 8.45749C25.9488 8.9782 25.9487 9.82241 25.428 10.3431L24.8917 10.8795C24.4881 11.283 24.4048 11.8966 24.6236 12.4237C24.8423 12.9505 25.3379 13.3333 25.9084 13.3333H26.6667C27.4031 13.3333 28 13.9303 28 14.6667V17.3333C28 18.0697 27.4031 18.6667 26.6667 18.6667H25.9083C25.3379 18.6667 24.8424 19.0495 24.6236 19.5763C24.4048 20.1033 24.4881 20.7169 24.8917 21.1204L25.428 21.6568C25.9488 22.1775 25.9488 23.0217 25.428 23.5424L23.5424 25.428C23.0217 25.9488 22.1775 25.9488 21.6568 25.428L21.1204 24.8917C20.7169 24.4881 20.1033 24.4048 19.5763 24.6236C19.0495 24.8424 18.6667 25.3379 18.6667 25.9083V26.6667C18.6667 27.4031 18.0697 28 17.3333 28H14.6667C13.9303 28 13.3333 27.4031 13.3333 26.6667V25.9084C13.3333 25.3379 12.9505 24.8423 12.4237 24.6236C11.8966 24.4048 11.283 24.4881 10.8795 24.8917L10.3431 25.428C9.82239 25.9488 8.97817 25.9488 8.45748 25.428L6.57185 23.5424C6.05116 23.0217 6.05116 22.1775 6.57185 21.6568L7.10831 21.1204C7.51179 20.7169 7.59517 20.1033 7.37637 19.5763C7.15767 19.0495 6.66212 18.6667 6.09172 18.6667H5.33333C4.59696 18.6667 4 18.0697 4 17.3333V14.6667C4 13.9303 4.59696 13.3333 5.33333 13.3333H6.09169C6.66211 13.3333 7.15767 12.9505 7.37639 12.4237C7.5952 11.8967 7.51181 11.2831 7.10831 10.8795L6.57188 10.3431C6.05117 9.82241 6.05117 8.9782 6.57188 8.45751L8.45749 6.57188C8.9782 6.05119 9.82241 6.05119 10.3431 6.57188L10.8795 7.10831C11.283 7.51181 11.8967 7.5952 12.4237 7.37639C12.9505 7.15767 13.3333 6.66211 13.3333 6.09168V5.33333C13.3333 4.59696 13.9303 4 14.6667 4Z" stroke="black" stroke-width="2"/>
<path d="M18.6666 16C18.6666 17.4728 17.4728 18.6667 16 18.6667C14.5272 18.6667 13.3333 17.4728 13.3333 16C13.3333 14.5272 14.5272 13.3334 16 13.3334C17.4728 13.3334 18.6666 14.5272 18.6666 16Z" stroke="black" stroke-width="2"/>
</svg>
