<svg width="24" height="24" viewBox="0 0 24 24" fill="none" xmlns="http://www.w3.org/2000/svg">
<path d="M12 3.99994H8.2C7.0799 3.99994 6.51984 3.99994 6.09202 4.21793C5.71569 4.40968 5.40973 4.71564 5.21799 5.09196C5 5.51979 5 6.07984 5 7.19994V16.7999C5 17.92 5 18.4801 5.21799 18.9079C5.40973 19.2842 5.71569 19.5902 6.09202 19.7819C6.51984 19.9999 7.0799 19.9999 8.2 19.9999H17.8C18.9201 19.9999 19.4802 19.9999 19.908 19.7819C20.2843 19.5902 20.5903 19.2842 20.782 18.9079C21 18.4801 21 17.92 21 16.7999V12.4999M16.5 5.49994L19.3284 8.32837M11.7627 10.2372L18.411 3.58896C19.192 2.80791 20.4584 2.80791 21.2394 3.58896C22.0205 4.37001 22.0205 5.63634 21.2394 6.41739L14.3774 13.2793C13.6158 14.041 13.235 14.4218 12.8012 14.7246C12.4162 14.9935 12.0009 15.2161 11.564 15.3881C11.0717 15.5819 10.5438 15.6884 9.48793 15.9015L9 15.9999L9.04745 15.6677C9.21536 14.4924 9.29932 13.9047 9.49029 13.356C9.65975 12.8691 9.89125 12.4062 10.1791 11.9785C10.5034 11.4965 10.9232 11.0767 11.7627 10.2372Z" stroke="black" stroke-width="2" stroke-linecap="round" stroke-linejoin="round"/>
</svg>
